<svg width="2872" height="280" viewBox="0 0 2872 280" fill="none" xmlns="http://www.w3.org/2000/svg">
<g clip-path="url(#clip0_34_380)">
<path d="M279.52 0H158.32V60.6H279.52V0Z" fill="#3B78FF"/>
<path d="M158.32 78.91V139.51H219.78C219.78 183.09 184.45 218.42 140.87 218.42C97.29 218.42 61.96 183.09 61.96 139.51C61.96 95.93 96.82 61.08 140.01 60.61V0C62.96 0 0.5 62.46 0.5 139.51C0.5 216.56 62.96 279.02 140.01 279.02C217.06 279.02 279.52 216.56 279.52 139.51V78.91H158.32Z" fill="#3B78FF"/>
<path d="M412.36 203.55C401.84 197.31 393.74 188.42 388.05 176.87C382.36 165.32 379.52 151.57 379.52 135.6V135.5C379.52 119.74 382.36 106.19 388.05 94.8402C393.74 83.5002 401.81 74.7602 412.26 68.6302C422.71 62.5002 435.03 59.4302 449.22 59.4302C460.94 59.4302 471.22 61.5002 480.06 65.6502C488.9 69.8002 496.11 75.4502 501.7 82.6102C507.28 89.7702 511 97.9102 512.85 107.02L513.26 108.77H486.43L486.02 107.64C483.21 99.6902 478.67 93.4902 472.4 89.0302C466.13 84.5802 458.44 82.3502 449.32 82.3502C440.2 82.3502 432.77 84.4402 426.4 88.6202C420.03 92.8002 415.13 98.8502 411.7 106.76C408.27 114.68 406.56 124.18 406.56 135.29V135.39C406.56 146.7 408.32 156.45 411.85 164.64C415.38 172.83 420.4 179.1 426.91 183.45C433.42 187.8 441.13 189.98 450.04 189.98C457.51 189.98 464.11 188.54 469.83 185.66C475.55 182.78 480.04 178.74 483.3 173.53C486.55 168.32 488.25 162.26 488.39 155.33L488.49 153.07H451.69V132.41H514.4V148.45C514.4 161.88 511.83 173.4 506.69 182.99C501.55 192.59 494.16 199.97 484.54 205.14C474.91 210.32 463.31 212.9 449.74 212.9C435.35 212.9 422.89 209.78 412.37 203.55H412.36Z" fill="#202020"/>
<path d="M553.2 205.61C545.35 201.02 539.34 194.51 535.16 186.08C530.98 177.65 528.89 167.68 528.89 156.17V156.07C528.89 144.63 531 134.64 535.21 126.1C539.42 117.56 545.35 110.94 552.99 106.21C560.63 101.48 569.66 99.1201 580.08 99.1201C590.5 99.1201 599.39 101.4 606.96 105.96C614.53 110.52 620.36 116.91 624.44 125.13C628.52 133.35 630.56 142.95 630.56 153.91V162.13H541.54V145.07H618.33L605.99 161V151.13C605.99 144 604.89 138.07 602.7 133.35C600.51 128.62 597.49 125.08 593.65 122.71C589.81 120.35 585.39 119.16 580.39 119.16C575.39 119.16 570.81 120.38 566.87 122.81C562.93 125.24 559.84 128.86 557.62 133.66C555.39 138.46 554.28 144.28 554.28 151.14V161.01C554.28 167.66 555.39 173.33 557.62 178.02C559.85 182.71 563.02 186.31 567.13 188.81C571.24 191.31 576.14 192.56 581.83 192.56C586.08 192.56 589.81 191.89 593.04 190.56C596.26 189.22 598.92 187.49 601.01 185.37C603.1 183.25 604.56 180.95 605.38 178.48L605.59 177.76H629.44L629.23 178.89C628.34 183.07 626.69 187.16 624.3 191.17C621.9 195.18 618.68 198.79 614.64 202.02C610.6 205.24 605.8 207.79 600.25 209.68C594.7 211.56 588.39 212.51 581.33 212.51C570.43 212.51 561.06 210.21 553.21 205.62L553.2 205.61Z" fill="#202020"/>
<path d="M646.9 101.37H672.39V118.43H673.01C675.82 112.54 680.02 107.84 685.6 104.35C691.18 100.85 698.09 99.1101 706.31 99.1101C718.3 99.1101 727.57 102.74 734.12 110.01C740.66 117.27 743.94 127.21 743.94 139.82V210.34H718.34V144.96C718.34 137.22 716.52 131.24 712.89 127.02C709.26 122.81 703.81 120.7 696.54 120.7C691.67 120.7 687.42 121.81 683.79 124.04C680.16 126.27 677.35 129.35 675.36 133.29C673.37 137.23 672.38 141.84 672.38 147.12V210.34H646.89V101.37H646.9Z" fill="#202020"/>
<path d="M784.54 205.61C776.66 201.02 770.58 194.47 766.29 185.98C762.01 177.48 759.87 167.41 759.87 155.76V155.66C759.87 144.08 762.03 134.06 766.35 125.59C770.67 117.13 776.75 110.6 784.6 106.01C792.45 101.42 801.65 99.1201 812.2 99.1201C821.79 99.1201 830.09 100.95 837.08 104.62C844.07 108.29 849.55 113.14 853.53 119.17C857.5 125.2 859.77 131.85 860.32 139.11V139.83H836.27L836.06 139.01C835.03 133.73 832.55 129.23 828.61 125.49C824.67 121.76 819.31 119.89 812.52 119.89C807.18 119.89 802.5 121.35 798.49 124.26C794.48 127.17 791.38 131.3 789.19 136.65C787 142 785.9 148.4 785.9 155.87V155.97C785.9 163.51 787.01 169.95 789.24 175.3C791.47 180.65 794.58 184.74 798.59 187.58C802.6 190.42 807.28 191.85 812.62 191.85C819.13 191.85 824.39 190.09 828.4 186.56C832.41 183.03 834.99 178.42 836.16 172.73L836.37 171.8H860.53L860.43 172.52C859.74 180.06 857.35 186.84 853.23 192.87C849.12 198.9 843.6 203.68 836.68 207.21C829.76 210.74 821.7 212.5 812.52 212.5C801.76 212.5 792.44 210.2 784.56 205.61H784.54ZM801.35 257.73C798.37 257.25 796.06 256.63 794.41 255.88V242.62C795.57 243.1 797.12 243.49 799.04 243.8C800.96 244.11 802.95 244.26 805 244.26C807.81 244.26 810.16 243.8 812.04 242.87C813.92 241.94 814.87 240.45 814.87 238.4V238.19C814.87 236 813.91 234.32 811.99 233.15C810.07 231.98 807.19 231.4 803.36 231.4H799.15V222.46L808.2 208.38H822.28V210.33L816.63 219.17C822.18 219.72 826.65 221.6 830.05 224.82C833.44 228.04 835.14 232.6 835.14 238.49V238.7C835.14 242.81 834.06 246.34 831.9 249.29C829.74 252.24 826.85 254.5 823.21 256.07C819.58 257.65 815.5 258.43 810.98 258.43C807.55 258.43 804.35 258.19 801.37 257.71L801.35 257.73Z" fill="#202020"/>
<path d="M924.2 43.2401C921.56 40.6001 920.24 37.4701 920.24 33.8301C920.24 30.1901 921.56 27.0801 924.2 24.4801C926.84 21.8801 930.01 20.5701 933.71 20.5701C937.41 20.5701 940.77 21.8701 943.37 24.4801C945.97 27.0901 947.28 30.2001 947.28 33.8301C947.28 37.4601 945.98 40.6001 943.37 43.2401C940.76 45.8801 937.54 47.2001 933.71 47.2001C929.88 47.2001 926.84 45.8801 924.2 43.2401ZM920.55 62.0001H947.07V210.34H920.55V62.0001Z" fill="#202020"/>
<path d="M988.75 208.28C982 205.47 976.72 201.51 972.92 196.41C969.12 191.31 966.8 185.39 965.98 178.68L965.88 177.76H991.07L991.28 178.68C992.24 183.41 994.52 187.08 998.12 189.68C1001.72 192.29 1006.77 193.59 1013.28 193.59C1017.46 193.59 1021.02 193.08 1023.97 192.05C1026.92 191.02 1029.19 189.52 1030.81 187.53C1032.42 185.54 1033.23 183.21 1033.23 180.54V180.44C1033.23 177.22 1032.13 174.6 1029.94 172.58C1027.75 170.56 1023.81 168.9 1018.12 167.59L1000.03 163.58C989.61 161.32 981.78 157.62 976.54 152.48C971.3 147.34 968.68 140.73 968.68 132.64V132.54C968.68 125.89 970.5 120.07 974.13 115.06C977.76 110.06 982.87 106.15 989.45 103.34C996.03 100.53 1003.67 99.1301 1012.37 99.1301C1021.07 99.1301 1029.16 100.64 1035.6 103.65C1042.04 106.67 1047.03 110.71 1050.56 115.78C1054.09 120.85 1055.99 126.54 1056.27 132.84L1056.37 133.97H1032.52L1032.42 133.15C1031.87 128.77 1029.88 125.15 1026.46 122.3C1023.03 119.46 1018.34 118.03 1012.38 118.03C1008.61 118.03 1005.34 118.58 1002.56 119.68C999.78 120.78 997.66 122.32 996.19 124.31C994.72 126.3 993.98 128.63 993.98 131.3V131.4C993.98 134.48 995.16 137.09 997.53 139.21C999.89 141.33 1003.89 143.05 1009.51 144.35L1027.6 148.36C1038.91 150.9 1046.96 154.51 1051.76 159.21C1056.56 163.9 1058.96 170.19 1058.96 178.07V178.17C1058.96 185.02 1057.01 191.04 1053.1 196.21C1049.19 201.39 1043.8 205.39 1036.91 208.24C1030.02 211.08 1022.12 212.51 1013.21 212.51C1003.68 212.51 995.54 211.1 988.79 208.3L988.75 208.28ZM1000.88 257.73C997.9 257.25 995.59 256.63 993.94 255.88V242.62C995.11 243.1 996.65 243.49 998.57 243.8C1000.49 244.11 1002.48 244.26 1004.53 244.26C1007.34 244.26 1009.69 243.8 1011.57 242.87C1013.45 241.94 1014.4 240.45 1014.4 238.4V238.19C1014.4 236 1013.44 234.32 1011.52 233.15C1009.6 231.98 1006.72 231.4 1002.88 231.4H998.67V222.46L1007.72 208.38H1021.8V210.33L1016.15 219.17C1021.7 219.72 1026.17 221.6 1029.57 224.82C1032.96 228.04 1034.66 232.6 1034.66 238.49V238.7C1034.66 242.81 1033.58 246.34 1031.42 249.29C1029.26 252.24 1026.36 254.5 1022.73 256.07C1019.1 257.65 1015.02 258.43 1010.5 258.43C1007.07 258.43 1003.87 258.19 1000.89 257.71L1000.88 257.73Z" fill="#202020"/>
<path d="M1162.74 62H1185.05V88.42H1177.34L1137.45 210.34H1109.69L1162.73 62H1162.74ZM1143.62 151.54H1211.57L1218.66 172H1136.52L1143.61 151.54H1143.62ZM1177.85 88.42V62H1192.55L1245.49 210.34H1217.73L1177.84 88.42H1177.85Z" fill="#202020"/>
<path d="M1271.96 205.66C1265.21 201.1 1260 194.58 1256.34 186.08C1252.67 177.58 1250.84 167.51 1250.84 155.86V155.76C1250.84 144.04 1252.69 133.95 1256.39 125.49C1260.09 117.03 1265.3 110.52 1272.01 105.96C1278.73 101.4 1286.64 99.12 1295.76 99.12C1303.5 99.12 1310.34 100.99 1316.27 104.72C1322.2 108.46 1326.7 113.58 1329.79 120.09H1330.41V62.01H1355.9V210.35H1330.41V191.85H1329.79C1326.71 198.29 1322.25 203.35 1316.43 207.01C1310.6 210.68 1303.75 212.51 1295.87 212.51C1286.69 212.51 1278.72 210.23 1271.97 205.67L1271.96 205.66ZM1317.55 186.69C1321.59 183.81 1324.75 179.73 1327.01 174.46C1329.27 169.18 1330.4 162.98 1330.4 155.85V155.75C1330.4 148.62 1329.25 142.44 1326.96 137.19C1324.66 131.95 1321.51 127.89 1317.5 125.01C1313.49 122.13 1308.85 120.69 1303.57 120.69C1298.29 120.69 1293.34 122.11 1289.33 124.96C1285.32 127.8 1282.24 131.83 1280.08 137.04C1277.92 142.25 1276.84 148.49 1276.84 155.75V155.85C1276.84 163.05 1277.92 169.28 1280.08 174.56C1282.24 179.84 1285.32 183.9 1289.33 186.74C1293.34 189.58 1298.08 191.01 1303.57 191.01C1309.06 191.01 1313.51 189.57 1317.55 186.69Z" fill="#202020"/>
<path d="M1390.59 208.02C1385.07 205.24 1380.79 201.37 1377.74 196.4C1374.69 191.43 1373.17 185.73 1373.17 179.28V179.07C1373.17 169.41 1376.78 161.75 1384.01 156.09C1391.24 150.43 1401.43 147.23 1414.59 146.48L1456.22 143.91V160.87L1418.18 163.23C1411.87 163.64 1407.04 165.15 1403.69 167.75C1400.33 170.36 1398.65 173.82 1398.65 178.13V178.23C1398.65 182.69 1400.35 186.2 1403.74 188.77C1407.13 191.34 1411.64 192.62 1417.26 192.62C1422.19 192.62 1426.6 191.63 1430.47 189.64C1434.34 187.65 1437.41 184.95 1439.67 181.52C1441.93 178.09 1443.06 174.22 1443.06 169.9V137.21C1443.06 131.73 1441.33 127.39 1437.87 124.21C1434.41 121.02 1429.42 119.43 1422.91 119.43C1416.88 119.43 1412.05 120.71 1408.42 123.28C1404.79 125.85 1402.53 129.16 1401.63 133.2L1401.42 134.13H1377.78L1377.88 132.9C1378.43 126.46 1380.59 120.68 1384.36 115.58C1388.13 110.48 1393.36 106.45 1400.04 103.5C1406.72 100.55 1414.65 99.0801 1423.84 99.0801C1433.03 99.0801 1440.85 100.59 1447.53 103.6C1454.21 106.62 1459.39 110.83 1463.05 116.24C1466.72 121.65 1468.55 128.03 1468.55 135.36V210.3H1443.06V193.54H1442.44C1440.38 197.31 1437.71 200.6 1434.42 203.41C1431.13 206.22 1427.38 208.38 1423.16 209.89C1418.95 211.4 1414.44 212.15 1409.64 212.15C1402.44 212.15 1396.09 210.76 1390.57 207.99L1390.59 208.02Z" fill="#202020"/>
<path d="M1489.23 101.37H1514.72V118.85H1515.34C1517.6 112.89 1521.4 108.11 1526.75 104.51C1532.1 100.91 1538.37 99.1101 1545.56 99.1101C1550.63 99.1101 1555.19 99.9801 1559.23 101.73C1563.27 103.48 1566.72 105.98 1569.56 109.23C1572.4 112.49 1574.48 116.44 1575.78 121.1H1576.29C1578.07 116.58 1580.62 112.69 1583.95 109.43C1587.27 106.18 1591.18 103.64 1595.67 101.82C1600.16 100 1605.01 99.1001 1610.22 99.1001C1617.42 99.1001 1623.67 100.63 1628.98 103.67C1634.29 106.72 1638.44 110.97 1641.42 116.42C1644.4 121.87 1645.89 128.26 1645.89 135.59V210.32H1620.29V141.86C1620.29 135.14 1618.61 129.94 1615.25 126.24C1611.89 122.54 1607.06 120.69 1600.75 120.69C1596.64 120.69 1593.02 121.63 1589.91 123.52C1586.79 125.41 1584.36 128.03 1582.61 131.38C1580.86 134.74 1579.99 138.61 1579.99 143V210.33H1555.11V140.53C1555.11 134.36 1553.38 129.51 1549.92 125.98C1546.46 122.45 1541.75 120.69 1535.79 120.69C1531.68 120.69 1528.04 121.68 1524.89 123.67C1521.74 125.66 1519.25 128.37 1517.44 131.79C1515.62 135.22 1514.72 139.16 1514.72 143.61V210.33H1489.23V101.36V101.37Z" fill="#202020"/>
<path d="M1667.07 62H1692.67V210.34H1667.07V62Z" fill="#202020"/>
<path d="M1727.46 208.02C1721.94 205.24 1717.66 201.37 1714.61 196.4C1711.56 191.43 1710.04 185.73 1710.04 179.28V179.07C1710.04 169.41 1713.65 161.75 1720.88 156.09C1728.11 150.43 1738.3 147.23 1751.46 146.48L1793.09 143.91V160.87L1755.05 163.23C1748.74 163.64 1743.91 165.15 1740.56 167.75C1737.2 170.36 1735.52 173.82 1735.52 178.13V178.23C1735.52 182.69 1737.22 186.2 1740.61 188.77C1744 191.34 1748.51 192.62 1754.13 192.62C1759.06 192.62 1763.47 191.63 1767.34 189.64C1771.21 187.65 1774.28 184.95 1776.54 181.52C1778.8 178.09 1779.93 174.22 1779.93 169.9V137.21C1779.93 131.73 1778.2 127.39 1774.74 124.21C1771.28 121.02 1766.29 119.43 1759.78 119.43C1753.75 119.43 1748.92 120.71 1745.29 123.28C1741.66 125.85 1739.4 129.16 1738.5 133.2L1738.29 134.13H1714.65L1714.75 132.9C1715.3 126.46 1717.46 120.68 1721.23 115.58C1725 110.48 1730.23 106.45 1736.91 103.5C1743.59 100.55 1751.52 99.0801 1760.71 99.0801C1769.9 99.0801 1777.72 100.59 1784.4 103.6C1791.08 106.62 1796.26 110.83 1799.92 116.24C1803.59 121.65 1805.42 128.03 1805.42 135.36V210.3H1779.93V193.54H1779.31C1777.25 197.31 1774.58 200.6 1771.29 203.41C1768 206.22 1764.25 208.38 1760.03 209.89C1755.82 211.4 1751.31 212.15 1746.51 212.15C1739.31 212.15 1732.96 210.76 1727.44 207.99L1727.46 208.02Z" fill="#202020"/>
<path d="M1826.1 101.37H1851.59V120.18H1852.21C1853.85 113.6 1856.85 108.45 1861.2 104.71C1865.55 100.98 1870.88 99.1101 1877.19 99.1101C1878.77 99.1101 1880.27 99.2101 1881.71 99.4201C1883.15 99.6301 1884.35 99.8701 1885.31 100.14V123.27C1884.28 122.86 1882.83 122.52 1880.94 122.24C1879.05 121.97 1877.02 121.83 1874.82 121.83C1870.02 121.83 1865.88 122.81 1862.38 124.76C1858.88 126.71 1856.21 129.58 1854.36 133.34C1852.51 137.11 1851.58 141.7 1851.58 147.11V210.33H1826.09V101.36L1826.1 101.37Z" fill="#202020"/>
<path d="M1899.08 101.37H1924.68V210.34H1899.08V101.37Z" fill="#202020"/>
<path d="M1991.19 62H2017.71V210.34H1991.19V62ZM2004.45 139.92H2041.77C2051.36 139.92 2058.78 137.47 2064.03 132.57C2069.27 127.67 2071.89 120.77 2071.89 111.86V111.65C2071.89 102.67 2069.27 95.75 2064.03 90.88C2058.79 86.01 2051.37 83.58 2041.77 83.58H2004.45V61.99H2048.34C2058.35 61.99 2067.13 64.05 2074.71 68.16C2082.28 72.27 2088.19 78.05 2092.44 85.48C2096.69 92.92 2098.81 101.6 2098.81 111.54V111.75C2098.81 121.62 2096.69 130.27 2092.44 137.71C2088.19 145.15 2082.28 150.94 2074.71 155.08C2067.14 159.23 2058.35 161.3 2048.34 161.3H2004.45V139.92Z" fill="#202020"/>
<path d="M2116.3 62H2141.9V210.34H2116.3V62Z" fill="#202020"/>
<path d="M2176.69 208.02C2171.17 205.24 2166.89 201.37 2163.84 196.4C2160.79 191.43 2159.27 185.73 2159.27 179.28V179.07C2159.27 169.41 2162.88 161.75 2170.11 156.09C2177.34 150.43 2187.53 147.23 2200.69 146.48L2242.32 143.91V160.87L2204.28 163.23C2197.97 163.64 2193.14 165.15 2189.79 167.75C2186.43 170.36 2184.75 173.82 2184.75 178.13V178.23C2184.75 182.69 2186.45 186.2 2189.84 188.77C2193.23 191.34 2197.74 192.62 2203.36 192.62C2208.29 192.62 2212.7 191.63 2216.57 189.64C2220.44 187.65 2223.51 184.95 2225.77 181.52C2228.03 178.09 2229.16 174.22 2229.16 169.9V137.21C2229.16 131.73 2227.43 127.39 2223.97 124.21C2220.51 121.02 2215.52 119.43 2209.01 119.43C2202.98 119.43 2198.15 120.71 2194.52 123.28C2190.89 125.85 2188.63 129.16 2187.73 133.2L2187.52 134.13H2163.88L2163.98 132.9C2164.53 126.46 2166.69 120.68 2170.46 115.58C2174.23 110.48 2179.46 106.45 2186.14 103.5C2192.82 100.55 2200.75 99.0801 2209.94 99.0801C2219.13 99.0801 2226.95 100.59 2233.63 103.6C2240.31 106.62 2245.49 110.83 2249.15 116.24C2252.82 121.65 2254.65 128.03 2254.65 135.36V210.3H2229.16V193.54H2228.54C2226.48 197.31 2223.81 200.6 2220.52 203.41C2217.23 206.22 2213.48 208.38 2209.26 209.89C2205.05 211.4 2200.54 212.15 2195.74 212.15C2188.54 212.15 2182.19 210.76 2176.67 207.99L2176.69 208.02Z" fill="#202020"/>
<path d="M2290.49 205.09C2284.97 200.16 2282.21 192.07 2282.21 180.83V121.1H2266.79V101.36H2282.21V73.71H2308.22V101.36H2328.47V121.1H2308.22V178.77C2308.22 184.05 2309.4 187.7 2311.77 189.72C2314.13 191.74 2317.61 192.75 2322.2 192.75C2323.5 192.75 2324.65 192.7 2325.64 192.6C2326.63 192.5 2327.57 192.41 2328.47 192.34V211.56C2326.96 211.77 2325.13 211.97 2322.97 212.18C2320.81 212.39 2318.39 212.49 2315.72 212.49C2304.41 212.49 2296 210.02 2290.48 205.09H2290.49Z" fill="#202020"/>
<path d="M2353.04 121.11H2338.13V101.37H2353.04V90.9901C2353.04 80.3701 2355.7 72.5201 2361.01 67.4501C2366.32 62.3801 2374.9 59.8401 2386.76 59.8401C2389.3 59.8401 2391.81 59.9401 2394.32 60.1501C2396.82 60.3601 2398.86 60.6001 2400.44 60.8701V78.7601C2399.34 78.6201 2398.13 78.5001 2396.79 78.4001C2395.45 78.3001 2394.1 78.2501 2392.73 78.2501C2387.73 78.2501 2384.04 79.3801 2381.68 81.6401C2379.32 83.9001 2378.13 87.2601 2378.13 91.7101V101.37H2400.03V121.11H2378.65V210.34H2353.05V121.11H2353.04Z" fill="#202020"/>
<path d="M2428.49 205.66C2420.61 201.1 2414.49 194.59 2410.14 186.13C2405.79 177.67 2403.61 167.57 2403.61 155.86V155.65C2403.61 144 2405.8 133.94 2410.19 125.48C2414.58 117.02 2420.71 110.51 2428.59 105.95C2436.47 101.39 2445.69 99.1101 2456.24 99.1101C2466.79 99.1101 2476.13 101.39 2484.05 105.95C2491.97 110.51 2498.12 117 2502.5 125.43C2506.88 133.86 2509.08 143.93 2509.08 155.65V155.86C2509.08 167.65 2506.9 177.77 2502.55 186.24C2498.2 194.7 2492.08 201.2 2484.2 205.72C2476.32 210.24 2467.03 212.5 2456.34 212.5C2445.65 212.5 2436.36 210.22 2428.48 205.66H2428.49ZM2470.54 187.62C2474.51 184.81 2477.58 180.72 2479.74 175.34C2481.9 169.96 2482.98 163.47 2482.98 155.86V155.65C2482.98 148.11 2481.88 141.67 2479.69 136.32C2477.5 130.97 2474.4 126.9 2470.39 124.09C2466.38 121.28 2461.67 119.88 2456.26 119.88C2450.85 119.88 2446.34 121.29 2442.33 124.09C2438.32 126.9 2435.2 130.98 2432.98 136.32C2430.75 141.67 2429.64 148.11 2429.64 155.65V155.86C2429.64 163.47 2430.75 169.96 2432.98 175.34C2435.21 180.72 2438.32 184.82 2442.33 187.62C2446.34 190.43 2451.05 191.83 2456.46 191.83C2461.87 191.83 2466.57 190.43 2470.54 187.62Z" fill="#202020"/>
<path d="M2525.43 101.37H2550.92V120.18H2551.54C2553.18 113.6 2556.18 108.45 2560.53 104.71C2564.88 100.98 2570.21 99.1101 2576.52 99.1101C2578.1 99.1101 2579.6 99.2101 2581.04 99.4201C2582.48 99.6301 2583.68 99.8701 2584.64 100.14V123.27C2583.61 122.86 2582.16 122.52 2580.27 122.24C2578.38 121.97 2576.35 121.83 2574.15 121.83C2569.35 121.83 2565.21 122.81 2561.71 124.76C2558.21 126.71 2555.54 129.58 2553.69 133.34C2551.84 137.11 2550.91 141.7 2550.91 147.11V210.33H2525.42V101.36L2525.43 101.37Z" fill="#202020"/>
<path d="M2597.7 101.37H2623.19V118.85H2623.81C2626.07 112.89 2629.87 108.11 2635.22 104.51C2640.57 100.91 2646.84 99.1101 2654.03 99.1101C2659.1 99.1101 2663.66 99.9801 2667.7 101.73C2671.74 103.48 2675.19 105.98 2678.03 109.23C2680.87 112.49 2682.95 116.44 2684.25 121.1H2684.76C2686.54 116.58 2689.09 112.69 2692.42 109.43C2695.74 106.18 2699.65 103.64 2704.14 101.82C2708.63 100 2713.48 99.1001 2718.69 99.1001C2725.89 99.1001 2732.14 100.63 2737.45 103.67C2742.76 106.72 2746.91 110.97 2749.89 116.42C2752.87 121.87 2754.36 128.26 2754.36 135.59V210.32H2728.76V141.86C2728.76 135.14 2727.08 129.94 2723.72 126.24C2720.36 122.54 2715.53 120.69 2709.22 120.69C2705.11 120.69 2701.49 121.63 2698.38 123.52C2695.26 125.41 2692.83 128.03 2691.08 131.38C2689.33 134.74 2688.46 138.61 2688.46 143V210.33H2663.58V140.53C2663.58 134.36 2661.85 129.51 2658.39 125.98C2654.93 122.45 2650.22 120.69 2644.26 120.69C2640.15 120.69 2636.51 121.68 2633.36 123.67C2630.21 125.66 2627.72 128.37 2625.91 131.79C2624.09 135.22 2623.19 139.16 2623.19 143.61V210.33H2597.7V101.36V101.37Z" fill="#202020"/>
<path d="M2791.53 207.61C2785.94 204.36 2781.68 199.68 2778.73 193.58C2775.78 187.48 2774.31 180.25 2774.31 171.89V101.37H2799.8V166.75C2799.8 174.5 2801.61 180.47 2805.25 184.69C2808.88 188.9 2814.36 191.01 2821.7 191.01C2826.57 191.01 2830.8 189.9 2834.4 187.67C2838 185.44 2840.79 182.34 2842.78 178.37C2844.77 174.4 2845.76 169.77 2845.76 164.49V101.37H2871.36V210.34H2845.76V193.28H2845.25C2842.44 199.11 2838.26 203.77 2832.71 207.26C2827.16 210.76 2820.24 212.5 2811.94 212.5C2803.64 212.5 2797.12 210.87 2791.53 207.62V207.61Z" fill="#202020"/>
</g>
<defs>
<clipPath id="clip0_34_380">
<rect width="2870.85" height="279.02" fill="white" transform="translate(0.5)"/>
</clipPath>
</defs>
</svg>
